<svg xmlns="http://www.w3.org/2000/svg" width="56" height="128"><title>Logo firmy Pieczywo Twarde</title><defs><linearGradient id="a" gradientTransform="rotate(45)"><stop offset="0%" stop-color="#ee7752"><animate attributeName="stop-color" dur="20s" repeatCount="indefinite" values="#ee7752; #e73c7e; #23a6d5; #23d5ab; #ee7752"/></stop><stop offset="100%" stop-color="#ee7752"><animate attributeName="stop-color" begin="-4s" dur="20s" repeatCount="indefinite" values="#ee7752; #e73c7e; #23a6d5; #23d5ab; #ee7752"/></stop></linearGradient></defs><path fill="url('#a')" fill-rule="evenodd" d="M28 128a4 4 0 0 1-4-4v-15.056a8 8 0 0 0-4.422-7.155L4.422 94.211A8 8 0 0 1 0 87.056V20a4 4 0 0 1 8 0v10.528a4 4 0 0 0 2.211 3.578C12.871 35.436 16 33.5 16 30.528V4a4 4 0 0 1 8 0v34.5a4 4 0 0 0 8 0V12a4 4 0 0 1 8 0v18.528c0 2.973 3.13 4.907 5.789 3.578A4 4 0 0 0 48 30.528V20a4 4 0 0 1 8 0v67.056a8 8 0 0 1-4.422 7.155l-15.156 7.578A8 8 0 0 0 32 108.944V124a4 4 0 0 1-4 4ZM8 46.056a8 8 0 0 0 4.422 7.155L24 59v-4.056a8 8 0 0 0-4.422-7.155L8 42v4.056Zm0 18a8 8 0 0 0 4.422 7.155L24 77v-4.056a8 8 0 0 0-4.422-7.155L8 60v4.056ZM24 95l-11.578-5.789A8 8 0 0 1 8 82.056V78l11.578 5.789A8 8 0 0 1 24 90.944V95Zm12.422-11.211A8 8 0 0 0 32 90.944V95l11.578-5.789A8 8 0 0 0 48 82.056V78l-11.578 5.789ZM32 77v-4.056a8 8 0 0 1 4.422-7.155L48 60v4.056a8 8 0 0 1-4.422 7.155L32 77Zm0-18v-4.056a8 8 0 0 1 4.422-7.155L48 42v4.056a8 8 0 0 1-4.422 7.155L32 59Z" clip-rule="evenodd"/></svg>