<svg
  viewBox="0 0 32 32"
  xmlns="http://www.w3.org/2000/svg"
  fill="#e2000e"
>
  <path d="M16.3051 7.52312L17.5219 9.99333L20.2471 10.3871C20.5261 10.4275 20.6377 10.7704 20.4357 10.9672L18.4647 12.8879L18.93 15.6017C18.9776 15.8796 18.6859 16.0915 18.4364 15.96L16.0001 14.6768L13.5637 15.96C13.3142 16.0915 13.0223 15.8795 13.0702 15.6015L13.5379 12.8879L11.5645 10.9674C11.3624 10.7706 11.4739 10.4275 11.753 10.3871L14.4783 9.99333L15.6951 7.52312C15.8197 7.27007 16.1805 7.27007 16.3051 7.52312Z" />
  <path d="M25.3333 12C25.3333 6.84535 21.1547 2.66667 16 2.66667C10.8453 2.66667 6.66666 6.84535 6.66666 12C6.66666 14.5427 7.68341 16.8479 9.33249 18.5311L9.3344 28.3336L9.34365 28.4729C9.44098 29.1964 10.2867 29.5903 10.9102 29.1512L15.9988 25.5676L21.09 29.1513L21.2093 29.224C21.8568 29.5608 22.6656 29.0961 22.6656 28.3336L22.6675 18.5311C24.3165 16.8479 25.3333 14.5427 25.3333 12ZM20.6659 20.0852L20.6656 26.4068L16.5741 23.5269L16.4397 23.4471C16.1155 23.2876 15.7249 23.3143 15.4228 23.5271L11.3344 26.4063L11.3341 20.0852C12.7067 20.8789 14.3003 21.3333 16 21.3333C17.6997 21.3333 19.2932 20.8789 20.6659 20.0852ZM8.66666 12C8.66666 7.94991 11.9499 4.66667 16 4.66667C20.0501 4.66667 23.3333 7.94991 23.3333 12C23.3333 16.0501 20.0501 19.3333 16 19.3333C11.9499 19.3333 8.66666 16.0501 8.66666 12Z" />
</svg>
