<svg version="1.1" viewBox="0 0 879.91 837.29" xmlns="http://www.w3.org/2000/svg"><title>Stop!</title><g transform="translate(195.67 17.712)"><g transform="matrix(1.7219 0 0 1.6377 -195.28 -17.308)"><path d="m510.44 150.44-150.34-150.34h-209.66l-150.34 150.34v209.88l73.286 73.286 77.05 77.05h209.66l150.34-150.34z" fill="#fff" stroke="#f00"/><path d="m159.73 487.98h191.09l136.94-137.16v-191.09l-136.94-136.94h-191.09l-136.94 136.94v191.09z" fill="#f00"/><path d="m423.32 242.24c9.72 0 17.568-7.848 17.568-17.568 0-9.504-7.848-17.568-17.352-17.568h-24.912v35.136h24.696z" fill="#f00"/><g transform="scale(.97524 1.0254)" fill="#fff"><path d="m38.941 262.97 23.448-2.2796c1.4112 7.8702 4.2743 13.651 8.5893 17.341 4.315 3.6908 10.136 5.5363 17.464 5.5362 7.7615 1e-5 13.61-1.6419 17.545-4.9256 3.935-3.2837 5.9025-7.1238 5.9026-11.52-8e-5 -2.8224-0.8278-5.2241-2.4832-7.2053-1.6555-1.9811-4.5458-3.7044-8.6707-5.1699-2.8225-0.97694-9.2543-2.7138-19.295-5.2106-12.918-3.2023-21.982-7.1374-27.193-11.805-7.3274-6.5674-10.991-14.573-10.991-24.018-1e-5 -6.0789 1.7233-11.764 5.1699-17.057 3.4466-5.2919 8.4129-9.322 14.899-12.09 6.4861-2.768 14.315-4.1521 23.488-4.1522 14.98 1.3e-4 26.256 3.2839 33.828 9.8513 7.5715 6.5676 11.547 15.333 11.927 26.297l-24.099 1.0584c-1.0313-6.1332-3.2431-10.543-6.6354-13.23-3.3924-2.6866-8.4808-4.03-15.265-4.0301-7.0018 1e-4 -12.484 1.4384-16.446 4.315-2.5511 1.8455-3.8266 4.3151-3.8265 7.4088-3.3e-5 2.8225 1.1941 5.2378 3.5823 7.246 3.0395 2.5511 10.421 5.2107 22.145 7.9787 11.724 2.7682 20.394 5.6313 26.012 8.5893 5.6176 2.9582 10.014 7.0018 13.189 12.131 3.1751 5.1292 4.7627 11.466 4.7628 19.01-1e-4 6.8389-1.8998 13.244-5.6991 19.214-3.7995 5.9705-9.1729 10.408-16.12 13.311-6.9475 2.9038-15.605 4.3557-25.972 4.3557-15.089-1e-5 -26.677-3.4873-34.764-10.462-8.0873-6.9746-12.918-17.138-14.492-30.49z"/><path d="m183.29 301.8v-99.164h-35.416v-20.191h94.849v20.191h-35.334v99.164z"/><path d="m253.47 242.86c0-12.158 1.8183-22.362 5.4548-30.612 2.7138-6.0789 6.4182-11.534 11.113-16.364 4.6949-4.8305 9.8377-8.4128 15.428-10.747 7.4359-3.1479 16.012-4.722 25.727-4.7221 17.586 1.3e-4 31.657 5.455 42.214 16.364 10.557 10.91 15.835 26.08 15.835 45.511-1.2e-4 19.268-5.2378 34.344-15.713 45.226-10.476 10.883-24.479 16.324-42.01 16.324-17.749 0-31.861-5.4141-42.336-16.242-10.475-10.828-15.713-25.741-15.713-44.738zm24.832-0.81415c-3e-5 13.515 3.1209 23.76 9.3628 30.734 6.2418 6.9746 14.166 10.462 23.773 10.462 9.607 2e-5 17.491-3.4601 23.651-10.38 6.1603-6.9203 9.2406-17.301 9.2406-31.141-1e-4 -13.678-2.9989-23.882-8.9964-30.612-5.9977-6.7302-13.963-10.095-23.895-10.096-9.9327 1e-4 -17.939 3.406-24.018 10.218-6.079 6.8118-9.1186 17.084-9.1185 30.816z"/><path d="m387.97 301.8v-119.35h38.672c14.655 1.2e-4 24.207 0.59716 28.658 1.7911 6.8388 1.7912 12.565 5.6856 17.179 11.683 4.6134 5.9977 6.9202 13.746 6.9203 23.244-1.1e-4 7.3275-1.3299 13.488-3.9894 18.481-2.6597 4.9935-6.0384 8.915-10.136 11.765-4.098 2.8496-8.2638 4.7357-12.497 5.6584-5.7534 1.1399-14.085 1.7098-24.995 1.7097h-15.713v45.023zm24.099-99.164v33.869h13.189c9.4984 7e-5 15.849-0.62412 19.051-1.8726 3.2023-1.2483 5.7126-3.2023 7.5309-5.8619 1.8182-2.6595 2.7273-5.7533 2.7274-9.2814-8e-5 -4.3421-1.2756-7.9243-3.8265-10.747-2.5511-2.8223-5.7806-4.5863-9.6884-5.292-2.8767-0.54267-8.6572-0.81405-17.341-0.81415z"/></g></g></g></svg>